<svg width="150" height="40" viewBox="0 0 150 40" fill="none" xmlns="http://www.w3.org/2000/svg">
<g clip-path="url(#clip0_174_578)">
<path d="M60.8123 19V0.799999H68.6643C70.0336 0.799999 71.2816 1.02533 72.4083 1.476C73.535 1.92667 74.5143 2.55933 75.3463 3.374C76.1783 4.17133 76.8196 5.12467 77.2703 6.234C77.721 7.34333 77.9463 8.56533 77.9463 9.9C77.9463 11.2173 77.721 12.4393 77.2703 13.566C76.8196 14.6753 76.1783 15.6373 75.3463 16.452C74.5143 17.2493 73.535 17.8733 72.4083 18.324C71.2816 18.7747 70.0336 19 68.6643 19H60.8123ZM65.9603 15.724L65.1543 14.554H68.5343C69.1756 14.554 69.7476 14.4413 70.2503 14.216C70.7703 13.9907 71.2123 13.6787 71.5763 13.28C71.9403 12.864 72.2263 12.37 72.4343 11.798C72.6423 11.226 72.7463 10.5933 72.7463 9.9C72.7463 9.20667 72.6423 8.574 72.4343 8.002C72.2263 7.43 71.9316 6.94467 71.5503 6.546C71.1863 6.13 70.753 5.80933 70.2503 5.584C69.7476 5.35867 69.1756 5.246 68.5343 5.246H65.0763L65.9603 4.128V15.724ZM89.1056 19.156C87.5629 19.156 86.1849 18.8527 84.9716 18.246C83.7756 17.622 82.8309 16.7727 82.1376 15.698C81.4616 14.6233 81.1236 13.3927 81.1236 12.006V0.799999H86.3236V11.772C86.3236 12.344 86.4449 12.8553 86.6876 13.306C86.9302 13.7393 87.2596 14.086 87.6756 14.346C88.1089 14.5887 88.5856 14.71 89.1056 14.71C89.6776 14.71 90.1802 14.5887 90.6136 14.346C91.0469 14.086 91.3936 13.7393 91.6536 13.306C91.9136 12.8553 92.0436 12.344 92.0436 11.772V0.799999H97.0876V12.006C97.0876 13.3927 96.7409 14.6233 96.0476 15.698C95.3716 16.7727 94.4356 17.622 93.2396 18.246C92.0436 18.8527 90.6656 19.156 89.1056 19.156ZM101.387 19V0.799999H109.629C110.911 0.799999 111.995 0.981999 112.879 1.346C113.78 1.71 114.465 2.22133 114.933 2.88C115.401 3.53867 115.635 4.31867 115.635 5.22C115.635 6.29467 115.383 7.18733 114.881 7.898C114.378 8.60867 113.65 9.08533 112.697 9.328L112.619 8.834C113.416 9.02467 114.109 9.33667 114.699 9.77C115.305 10.186 115.773 10.706 116.103 11.33C116.432 11.9367 116.597 12.6387 116.597 13.436C116.597 14.372 116.423 15.1867 116.077 15.88C115.747 16.5733 115.271 17.154 114.647 17.622C114.04 18.09 113.329 18.4367 112.515 18.662C111.717 18.8873 110.842 19 109.889 19H101.387ZM106.197 14.866H109.733C110.131 14.866 110.461 14.8053 110.721 14.684C110.998 14.5453 111.206 14.346 111.345 14.086C111.501 13.826 111.579 13.514 111.579 13.15C111.579 12.8033 111.501 12.5173 111.345 12.292C111.189 12.0667 110.963 11.8933 110.669 11.772C110.374 11.6333 110.019 11.564 109.603 11.564H106.197V14.866ZM106.197 8.002H108.797C109.213 8.002 109.559 7.94133 109.837 7.82C110.114 7.69867 110.322 7.52533 110.461 7.3C110.599 7.05733 110.669 6.78 110.669 6.468C110.669 6 110.513 5.62733 110.201 5.35C109.889 5.07267 109.395 4.934 108.719 4.934H106.197V8.002ZM117.35 19L124.604 0.799999H128.764L135.966 19H130.844L127.724 10.55C127.551 10.082 127.395 9.64867 127.256 9.25C127.117 8.85133 126.987 8.46133 126.866 8.08C126.745 7.69867 126.623 7.30867 126.502 6.91C126.398 6.51133 126.303 6.078 126.216 5.61L127.048 5.584C126.944 6.08667 126.831 6.53733 126.71 6.936C126.606 7.33467 126.493 7.716 126.372 8.08C126.251 8.444 126.112 8.82533 125.956 9.224C125.817 9.62267 125.661 10.0647 125.488 10.55L122.368 19H117.35ZM120.886 15.984L122.42 12.344H130.844L132.274 15.984H120.886ZM137.588 19V14.788H140.76V5.012H137.588V0.799999H149.054V5.012H145.908V14.788H149.054V19H137.588Z" fill="#B95913"/>
<path d="M64.108 38V27.868H60.776V26.1H69.378V27.868H65.944V38H64.108ZM73.9199 38V36.3H75.8409V27.8H73.9199V26.1H79.5979V27.8H77.6769V36.3H79.5979V38H73.9199ZM89.779 38.17C88.9517 38.17 88.1924 38.0227 87.501 37.728C86.8097 37.4333 86.209 37.014 85.699 36.47C85.189 35.9147 84.7924 35.263 84.509 34.515C84.237 33.767 84.101 32.9453 84.101 32.05C84.101 31.2 84.2484 30.4123 84.543 29.687C84.849 28.9503 85.2684 28.3043 85.801 27.749C86.3337 27.1937 86.9514 26.763 87.654 26.457C88.3567 26.151 89.116 25.998 89.932 25.998C90.51 25.998 91.071 26.0887 91.615 26.27C92.1704 26.44 92.669 26.6837 93.111 27.001C93.5644 27.307 93.9327 27.6583 94.216 28.055L92.992 29.33C92.6634 29.0013 92.329 28.7293 91.989 28.514C91.6604 28.2873 91.3204 28.1173 90.969 28.004C90.629 27.8907 90.2834 27.834 89.932 27.834C89.3767 27.834 88.8554 27.9417 88.368 28.157C87.892 28.361 87.4727 28.65 87.11 29.024C86.7587 29.398 86.481 29.8457 86.277 30.367C86.073 30.877 85.971 31.438 85.971 32.05C85.971 32.696 86.0674 33.2853 86.26 33.818C86.464 34.3393 86.7474 34.787 87.11 35.161C87.4727 35.535 87.9034 35.824 88.402 36.028C88.912 36.2207 89.473 36.317 90.085 36.317C90.459 36.317 90.8274 36.266 91.19 36.164C91.5527 36.062 91.8927 35.9147 92.21 35.722C92.5274 35.5293 92.8164 35.3027 93.077 35.042L93.995 36.538C93.7344 36.844 93.3774 37.1217 92.924 37.371C92.482 37.6203 91.9834 37.8187 91.428 37.966C90.884 38.102 90.3344 38.17 89.779 38.17ZM100.739 34.396L100.637 32.339L106.876 26.1H109.29L100.739 34.396ZM99.2091 38V26.1H101.045V38H99.2091ZM107.097 38L102.541 31.914L103.901 30.741L109.392 38H107.097ZM114.38 38V26.1H121.877V27.868H116.216V36.232H121.877V38H114.38ZM115.213 32.781V31.013H120.942V32.781H115.213ZM129.804 38V27.868H126.472V26.1H135.074V27.868H131.64V38H129.804ZM143.73 38.17C143.084 38.17 142.483 38.085 141.928 37.915C141.384 37.745 140.885 37.49 140.432 37.15C139.99 36.7987 139.593 36.368 139.242 35.858L140.5 34.413C141.055 35.2063 141.588 35.756 142.098 36.062C142.608 36.368 143.214 36.521 143.917 36.521C144.347 36.521 144.738 36.453 145.09 36.317C145.441 36.181 145.719 35.994 145.923 35.756C146.127 35.518 146.229 35.246 146.229 34.94C146.229 34.736 146.195 34.5433 146.127 34.362C146.059 34.1807 145.951 34.0163 145.804 33.869C145.668 33.7217 145.486 33.5857 145.26 33.461C145.044 33.3363 144.789 33.2287 144.495 33.138C144.2 33.036 143.86 32.951 143.475 32.883C142.863 32.7583 142.33 32.594 141.877 32.39C141.423 32.186 141.044 31.931 140.738 31.625C140.432 31.319 140.205 30.9733 140.058 30.588C139.91 30.1913 139.837 29.7493 139.837 29.262C139.837 28.786 139.939 28.344 140.143 27.936C140.358 27.528 140.647 27.1767 141.01 26.882C141.384 26.576 141.82 26.3437 142.319 26.185C142.817 26.015 143.356 25.93 143.934 25.93C144.546 25.93 145.107 26.0093 145.617 26.168C146.127 26.3267 146.58 26.5647 146.977 26.882C147.373 27.188 147.702 27.5677 147.963 28.021L146.671 29.296C146.444 28.922 146.189 28.6103 145.906 28.361C145.622 28.1003 145.311 27.9077 144.971 27.783C144.631 27.647 144.268 27.579 143.883 27.579C143.441 27.579 143.055 27.647 142.727 27.783C142.398 27.919 142.137 28.1117 141.945 28.361C141.763 28.599 141.673 28.8823 141.673 29.211C141.673 29.449 141.718 29.67 141.809 29.874C141.899 30.0667 142.035 30.2423 142.217 30.401C142.409 30.5483 142.664 30.6843 142.982 30.809C143.299 30.9223 143.679 31.0243 144.121 31.115C144.744 31.251 145.299 31.4267 145.787 31.642C146.274 31.846 146.688 32.0897 147.028 32.373C147.368 32.6563 147.623 32.9737 147.793 33.325C147.974 33.6763 148.065 34.056 148.065 34.464C148.065 35.2233 147.889 35.8807 147.538 36.436C147.186 36.9913 146.688 37.422 146.042 37.728C145.396 38.0227 144.625 38.17 143.73 38.17Z" fill="black"/>
<rect x="1" y="2" width="48" height="36" rx="4" fill="#D9D9D9" stroke="black" stroke-width="2"/>
<path d="M0 4C0 1.79086 1.79086 0 4 0H50C52.2091 0 54 1.79086 54 4V36C54 38.2091 52.2091 40 50 40H4C1.79086 40 0 38.2091 0 36V4Z" fill="#B95913"/>
<path d="M21.6535 5.5H21.6535L21.3465 5.50001C21.3465 5.50001 21.3465 5.50001 21.3465 5.50001C21.3465 5.50001 21.3465 5.50001 21.3465 5.50001C21.0112 5.50002 20.693 5.76411 20.693 6.1455V9.41443C20.404 9.46714 20.1558 9.7125 20.1558 10.0494V13.782C19.9129 13.8679 19.7209 14.0934 19.7209 14.3897V19.1999H19.5558C19.2205 19.1999 18.9023 19.464 18.9023 19.8453V24.6555H18.8395C18.5042 24.6555 18.186 24.9196 18.186 25.301V29.9172H18.1744C17.8391 29.9172 17.5209 30.1813 17.5209 30.5627V32.8997H17.2023C16.867 32.8997 16.5488 33.1638 16.5488 33.5452V33.6513H16.1535C15.8181 33.6513 15.5 33.9154 15.5 34.2968V34.8545C15.5 35.2359 15.8181 35.5 16.1535 35.5L26.8465 35.5C27.1819 35.5 27.5 35.2359 27.5 34.8545V34.2726C27.5 33.8912 27.1819 33.6271 26.8465 33.6271H26.4512V33.5209C26.4512 33.1395 26.133 32.8754 25.7977 32.8754H25.4791V27.8712C25.4791 27.4898 25.1609 27.2257 24.8256 27.2257H24.814V22.7065C24.814 22.3251 24.4958 22.061 24.1605 22.061H24.0977V17.1296C24.0977 16.7482 23.7795 16.4841 23.4442 16.4841H23.2791V13.25C23.2791 12.9537 23.0871 12.7282 22.8442 12.6423V10.0251C22.8442 9.68823 22.596 9.44287 22.307 9.39016V6.14548C22.307 5.7641 21.9888 5.5 21.6535 5.5Z" fill="white" stroke="#B95913"/>
<mask id="path-6-outside-1_174_578" maskUnits="userSpaceOnUse" x="28" y="8" width="23" height="28" fill="black">
<rect fill="white" x="28" y="8" width="23" height="28"/>
<path fill-rule="evenodd" clip-rule="evenodd" d="M41.1852 17.8265C42.7041 19.0773 45.849 22.5439 46.2778 26.4035C47.0283 25.2242 48.079 22.233 46.2778 19.7027C45.7954 18.9701 44.2408 17.3226 41.8821 16.5936C42.8827 15.7716 45.2544 14.5117 49.5 18.5C49.4107 17.0884 49.0975 14.6959 45.7954 13.9669C44.9198 13.7882 42.7398 13.8489 41.0244 15.5214C41.4175 13.9847 41.3996 10.729 38.1833 10C38.7193 10.5361 39.7593 12.23 39.6306 14.7174C38.2547 13.2521 34.6238 11.4045 31.1072 15.7359C32.5903 15.2534 36.0176 14.6209 37.8616 15.9503C36.3606 15.7538 32.8869 16.4757 31 20.9357C31.8756 19.8993 35.1813 17.5585 36.6823 17.7729C33.5195 20.2388 34.002 24.27 35.9318 27.1004C35.9142 24.2924 36.9964 18.7059 40.001 17.8167C40.8212 20.449 41.5133 27.1416 38.0226 34.123H41.0246C41.8708 29.9976 43.0823 21.0921 41.2611 18.0541L41.1852 17.8265Z"/>
</mask>
<path fill-rule="evenodd" clip-rule="evenodd" d="M41.1852 17.8265C42.7041 19.0773 45.849 22.5439 46.2778 26.4035C47.0283 25.2242 48.079 22.233 46.2778 19.7027C45.7954 18.9701 44.2408 17.3226 41.8821 16.5936C42.8827 15.7716 45.2544 14.5117 49.5 18.5C49.4107 17.0884 49.0975 14.6959 45.7954 13.9669C44.9198 13.7882 42.7398 13.8489 41.0244 15.5214C41.4175 13.9847 41.3996 10.729 38.1833 10C38.7193 10.5361 39.7593 12.23 39.6306 14.7174C38.2547 13.2521 34.6238 11.4045 31.1072 15.7359C32.5903 15.2534 36.0176 14.6209 37.8616 15.9503C36.3606 15.7538 32.8869 16.4757 31 20.9357C31.8756 19.8993 35.1813 17.5585 36.6823 17.7729C33.5195 20.2388 34.002 24.27 35.9318 27.1004C35.9142 24.2924 36.9964 18.7059 40.001 17.8167C40.8212 20.449 41.5133 27.1416 38.0226 34.123H41.0246C41.8708 29.9976 43.0823 21.0921 41.2611 18.0541L41.1852 17.8265Z" fill="white"/>
<path d="M46.2778 26.4035L45.2839 26.514L45.5974 29.3354L47.1215 26.9404L46.2778 26.4035ZM41.1852 17.8265L41.8209 17.0546L39.1371 14.8444L40.2365 18.1427L41.1852 17.8265ZM46.2778 19.7027L45.4427 20.2527L45.4526 20.2679L45.4632 20.2827L46.2778 19.7027ZM41.8821 16.5936L41.2474 15.8208L39.8115 17.0003L41.5868 17.549L41.8821 16.5936ZM49.5 18.5L48.8153 19.2288L50.6577 20.9595L50.498 18.4368L49.5 18.5ZM45.7954 13.9669L46.011 12.9904L46.0032 12.9887L45.9953 12.9871L45.7954 13.9669ZM41.0244 15.5214L40.0556 15.2736L39.1732 18.723L41.7225 16.2374L41.0244 15.5214ZM38.1833 10L38.4043 9.02474L35.0287 8.25959L37.4761 10.7071L38.1833 10ZM39.6306 14.7174L38.9016 15.4019L40.5081 17.1126L40.6293 14.769L39.6306 14.7174ZM31.1072 15.7359L30.3309 15.1056L28.1967 17.7343L31.4166 16.6868L31.1072 15.7359ZM37.8616 15.9503L37.7318 16.9418L38.4464 15.1391L37.8616 15.9503ZM31 20.9357L30.079 20.5461L31.7639 21.5811L31 20.9357ZM36.6823 17.7729L37.2971 18.5616L39.1518 17.1156L36.8237 16.783L36.6823 17.7729ZM35.9318 27.1004L35.1056 27.6638L36.9523 30.3723L36.9318 27.0942L35.9318 27.1004ZM40.001 17.8167L40.9558 17.5192L40.6625 16.5781L39.7173 16.8578L40.001 17.8167ZM38.0226 34.123L37.1282 33.6758L36.4046 35.123H38.0226V34.123ZM41.0246 34.123V35.123H41.8403L42.0042 34.324L41.0246 34.123ZM41.2611 18.0541L40.3124 18.3703L40.347 18.4742L40.4034 18.5682L41.2611 18.0541ZM47.2717 26.2931C47.0326 24.1408 46.0468 22.1528 44.9657 20.5722C43.8815 18.9871 42.6512 17.7383 41.8209 17.0546L40.5495 18.5984C41.2381 19.1655 42.3396 20.2754 43.3149 21.7013C44.2931 23.1315 45.0942 24.8066 45.2839 26.514L47.2717 26.2931ZM45.4632 20.2827C46.1902 21.304 46.352 22.4239 46.2405 23.4519C46.1272 24.4974 45.7345 25.3947 45.4342 25.8667L47.1215 26.9404C47.5717 26.233 48.0795 25.045 48.2289 23.6675C48.3801 22.2725 48.1666 20.6317 47.0925 19.1228L45.4632 20.2827ZM41.5868 17.549C43.6847 18.1974 45.0631 19.6764 45.4427 20.2527L47.113 19.1527C46.5276 18.2638 44.7968 16.4478 42.1774 15.6382L41.5868 17.549ZM50.1847 17.7712C47.9671 15.688 46.1038 14.8463 44.5388 14.745C42.9477 14.642 41.8617 15.3162 41.2474 15.8208L42.5168 17.3663C42.9031 17.049 43.5033 16.6822 44.4096 16.7408C45.3419 16.8012 46.7873 17.3237 48.8153 19.2288L50.1847 17.7712ZM45.5798 14.9433C46.9827 15.2531 47.6382 15.8772 47.9875 16.4793C48.3654 17.1306 48.4587 17.8798 48.502 18.5632L50.498 18.4368C50.4519 17.7085 50.344 16.5557 49.7175 15.4757C49.0623 14.3463 47.9102 13.4097 46.011 12.9904L45.5798 14.9433ZM41.7225 16.2374C43.1421 14.8533 44.955 14.816 45.5954 14.9467L45.9953 12.9871C44.8845 12.7604 42.3375 12.8446 40.3263 14.8054L41.7225 16.2374ZM37.9622 10.9753C39.1865 11.2528 39.7448 11.9639 40.0066 12.7676C40.2897 13.6369 40.2193 14.6338 40.0556 15.2736L41.9932 15.7693C42.2226 14.8724 42.3398 13.4731 41.9082 12.1481C41.4552 10.7575 40.3964 9.47628 38.4043 9.02474L37.9622 10.9753ZM40.6293 14.769C40.7728 11.9942 39.6233 10.0259 38.8904 9.2929L37.4761 10.7071C37.8153 11.0463 38.7457 12.4659 38.632 14.6657L40.6293 14.769ZM31.8836 16.3662C33.4751 14.4058 34.965 13.9729 36.1036 14.0506C37.3113 14.1329 38.3408 14.8046 38.9016 15.4019L40.3596 14.0328C39.5446 13.1649 38.0706 12.1801 36.2397 12.0552C34.3398 11.9256 32.2559 12.7345 30.3309 15.1056L31.8836 16.3662ZM38.4464 15.1391C37.2487 14.2757 35.6516 14.1093 34.308 14.1645C32.9307 14.221 31.6125 14.5199 30.7979 14.7849L31.4166 16.6868C32.0851 16.4694 33.222 16.2108 34.3901 16.1628C35.5919 16.1134 36.6304 16.2955 37.2768 16.7615L38.4464 15.1391ZM31.921 21.3253C33.6227 17.3032 36.6503 16.8002 37.7318 16.9418L37.9915 14.9588C36.071 14.7073 32.1512 15.6481 30.079 20.5461L31.921 21.3253ZM36.8237 16.783C36.1891 16.6923 35.5039 16.8752 34.9256 17.0975C34.3159 17.3318 33.6783 17.6688 33.0844 18.0324C31.9203 18.7453 30.7728 19.6551 30.2361 20.2904L31.7639 21.5811C32.1028 21.1799 33.0459 20.4012 34.1288 19.7381C34.6584 19.4138 35.1834 19.141 35.6431 18.9643C36.1341 18.7756 36.4249 18.7463 36.5409 18.7629L36.8237 16.783ZM36.758 26.5371C35.8873 25.26 35.3685 23.7449 35.3971 22.32C35.4251 20.9265 35.9721 19.5946 37.2971 18.5616L36.0674 16.9843C34.2297 18.4171 33.4366 20.3338 33.3975 22.2799C33.3591 24.1948 34.0465 26.1104 35.1056 27.6638L36.758 26.5371ZM39.7173 16.8578C37.7114 17.4514 36.5468 19.5106 35.8882 21.4117C35.2035 23.3882 34.9224 25.6008 34.9318 27.1067L36.9318 27.0942C36.9236 25.7921 37.1749 23.8074 37.778 22.0663C38.4073 20.2499 39.286 19.0712 40.2848 18.7756L39.7173 16.8578ZM38.917 34.5702C42.5388 27.3267 41.8418 20.3629 40.9558 17.5192L39.0463 18.1142C39.8006 20.535 40.4878 26.9566 37.1282 33.6758L38.917 34.5702ZM41.0246 33.123H38.0226V35.123H41.0246V33.123ZM40.4034 18.5682C40.7425 19.134 40.9911 20.0801 41.1162 21.3634C41.2387 22.6199 41.2336 24.0909 41.1448 25.6229C40.9672 28.6859 40.4609 31.8947 40.045 33.9221L42.0042 34.324C42.4345 32.226 42.9571 28.9193 43.1415 25.7387C43.2336 24.1489 43.2429 22.566 43.1068 21.1694C42.9732 19.7995 42.6902 18.4932 42.1187 17.5399L40.4034 18.5682ZM40.2365 18.1427L40.3124 18.3703L42.2097 17.7378L42.1339 17.5103L40.2365 18.1427Z" fill="#B95913" mask="url(#path-6-outside-1_174_578)"/>
<path d="M27 11C38.2516 17.1417 38.7939 29.0373 37.5142 35H27V11Z" fill="white" stroke="#B95913" stroke-width="0.633813" stroke-linecap="round"/>
<path d="M35 19H30" stroke="#B95913" stroke-width="0.633813" stroke-linecap="round"/>
<path d="M38.1611 23.7258L29.9996 23.7258" stroke="#B95913" stroke-width="0.633813" stroke-linecap="round"/>
<path d="M38.7441 28L29.9997 28" stroke="#B95913" stroke-width="0.633813" stroke-linecap="round"/>
<path d="M30 32H38" stroke="#B95913" stroke-width="0.633813" stroke-linecap="round"/>
<line x1="5" y1="34.482" x2="49" y2="34.482" stroke="url(#paint0_linear_174_578)" stroke-width="1.03594"/>
</g>
<defs>
<linearGradient id="paint0_linear_174_578" x1="6.07317" y1="35" x2="47.9227" y2="36.1515" gradientUnits="userSpaceOnUse">
<stop stop-color="white"/>
<stop offset="1" stop-color="white"/>
</linearGradient>
<clipPath id="clip0_174_578">
<rect width="150" height="40" fill="white"/>
</clipPath>
</defs>
<script xmlns="">{
            document.currentScript.dataset.injected = true;
            const o = JSON.parse(decodeURIComponent(escape(atob('eyJ1c2VyQWdlbnQiOiJNb3ppbGxhLzUuMCAoV2luZG93cyBOVCAxMC4wOyBydjoxMTIuMCkgR2Vja28vMjAxMDAxMDEgRmlyZWZveC8xMTIuMCIsImFwcFZlcnNpb24iOiI1LjAgKFdpbmRvd3MpIiwicGxhdGZvcm0iOiJXaW5kb3dzIiwidmVuZG9yIjoiIiwicHJvZHVjdCI6IkdlY2tvIiwidXNlckFnZW50RGF0YSI6IltkZWxldGVdIiwib3NjcHUiOiJXaW5kb3dzIDEwIiwicHJvZHVjdFN1YiI6IjIwMTAwMTAxIiwiYnVpbGRJRCI6IjIwMTgxMDAxMDAwMDAwIn0='))));

            if (o.userAgentDataBuilder) {
              const v = new class NavigatorUAData {
                #p;

                constructor({p, ua}) {
                  this.#p = p;

                  const version = p.browser.major;
                  const name = p.browser.name === 'Chrome' ? 'Google Chrome' : p.browser.name;

                  this.brands = [{
                    brand: name,
                    version
                  }, {
                    brand: 'Chromium',
                    version
                  }, {
                    brand: 'Not=A?Brand',
                    version: '24'
                  }];

                  this.mobile = /Android|webOS|iPhone|iPad|iPod|BlackBerry|IEMobile|Opera Mini/i.test(ua);

                  // https://developer.mozilla.org/en-US/docs/Web/HTTP/Headers/Sec-CH-UA-Platform
                  this.platform = 'Unknown';
                  if (p.os &amp;&amp; p.os.name) {
                    const name = p.os.name.toLowerCase();
                    if (name.includes('mac')) {
                      this.platform = 'macOS';
                    }
                    else if (name.includes('debian')) {
                      this.platform = 'Linux';
                    }
                    else {
                      this.platform = p.os.name;
                    }
                  }
                }
                toJSON() {
                  return {
                    brands: this.brands,
                    mobile: this.mobile,
                    platform: this.platform
                  };
                }
                getHighEntropyValues(hints) {
                  if (!hints || Array.isArray(hints) === false) {
                    return Promise.reject(Error("Failed to execute 'getHighEntropyValues' on 'NavigatorUAData'"));
                  }

                  const r = this.toJSON();

                  if (hints.includes('architecture')) {
                    r.architecture = this.#p?.cpu?.architecture || 'x86';
                  }
                  if (hints.includes('bitness')) {
                    r.bitness = '64';
                  }
                  if (hints.includes('model')) {
                    r.model = '';
                  }
                  if (hints.includes('platformVersion')) {
                    r.platformVersion = this.#p?.os?.version || '10.0.0';
                  }
                  if (hints.includes('uaFullVersion')) {
                    r.uaFullVersion = this.brands[0].version;
                  }
                  if (hints.includes('fullVersionList')) {
                    r.fullVersionList = this.brands;
                  }
                  return Promise.resolve(r);
                }
              }(o.userAgentDataBuilder);

              navigator.__defineGetter__('userAgentData', () =&gt; {
                return v;
              });
            }
            delete o.userAgentDataBuilder;

            for (const key of Object.keys(o)) {
              if (o[key] === '[delete]') {
                delete Object.getPrototypeOf(window.navigator)[key];
              }
              else {
                navigator.__defineGetter__(key, () =&gt; {
                  if (o[key] === 'empty') {
                    return '';
                  }
                  return o[key];
                });
              }
            }
          }</script></svg>